<?xml version="1.0" standalone="no"?>
<!DOCTYPE svg PUBLIC "-//W3C//DTD SVG 20010904//EN"
 "http://www.w3.org/TR/2001/REC-SVG-20010904/DTD/svg10.dtd">
<svg version="1.0" xmlns="http://www.w3.org/2000/svg"
 width="512.000000pt" height="512.000000pt" viewBox="0 0 512.000000 512.000000"
 preserveAspectRatio="xMidYMid meet">
<metadata>
Created by potrace 1.14, written by Peter Selinger 2001-2017
</metadata>
<g transform="translate(0.000000,512.000000) scale(0.100000,-0.100000)"
fill="#000000" stroke="none">
<path d="M855 4583 c-69 -16 -119 -61 -158 -140 -19 -38 -29 -46 -121 -87
-193 -86 -259 -109 -337 -117 -121 -12 -180 -63 -199 -170 -42 -245 -45 -353
-11 -418 51 -98 177 -184 316 -216 165 -39 330 -25 521 43 60 22 117 38 127
36 64 -9 79 -70 92 -369 4 -82 13 -197 20 -255 8 -59 10 -109 5 -114 -5 -4
-57 -22 -117 -38 -59 -16 -127 -38 -151 -50 -68 -32 -99 -91 -94 -179 2 -33
57 -115 90 -135 15 -8 40 -33 57 -55 37 -50 83 -79 122 -79 44 0 54 17 38 65
-14 39 -18 65 -16 97 2 26 53 48 123 52 l63 4 36 -57 c39 -61 128 -148 181
-175 18 -10 47 -25 63 -34 17 -9 80 -38 140 -64 61 -26 113 -53 116 -60 4 -7
15 -40 24 -73 29 -103 80 -182 194 -297 57 -59 109 -114 114 -123 18 -34 -21
-103 -112 -195 -47 -48 -100 -94 -118 -103 -50 -26 -169 -55 -297 -72 -66 -9
-138 -24 -160 -32 -113 -44 -168 -135 -115 -192 l21 -22 346 2 c191 1 360 6
376 10 45 13 86 46 146 117 85 100 155 167 228 219 37 26 72 54 79 63 15 18
16 60 3 94 -5 14 -6 26 -2 26 4 0 41 -13 82 -29 41 -16 152 -54 247 -85 172
-57 218 -81 232 -119 9 -24 -10 -137 -32 -189 -34 -80 -75 -96 -267 -104 -74
-3 -151 -10 -170 -15 -115 -29 -161 -127 -86 -183 26 -20 39 -21 349 -21 l322
0 44 25 c62 35 96 100 123 234 18 91 29 121 75 199 165 281 155 325 -97 412
-58 20 -111 42 -119 50 -15 15 -23 115 -11 135 9 14 193 15 260 1 30 -6 93
-25 140 -42 385 -136 495 -160 715 -154 92 2 153 9 210 24 302 81 506 295 586
616 28 114 36 328 15 418 -22 93 -59 161 -103 192 -59 39 -67 35 -59 -32 3
-32 9 -112 12 -178 19 -385 -151 -590 -506 -612 -173 -10 -286 23 -418 124
-138 105 -250 247 -448 565 -278 444 -404 592 -594 695 -174 94 -384 122 -605
79 -85 -16 -90 -17 -200 -41 -38 -9 -109 -18 -156 -22 -111 -8 -162 13 -207
85 -51 82 -62 122 -97 357 -36 244 -52 310 -96 402 -85 178 -254 282 -432 267
-31 -2 -67 -8 -80 -13 -18 -7 -31 -5 -45 5 -47 33 -167 59 -217 47z"/>
</g>
</svg>
