<svg fill="#fa314a" xmlns="http://www.w3.org/2000/svg"  viewBox="0 0 32 32" width="32px" height="32px"><path d="M20.952,24.032l-0.853,1.418l-0.278,4.622c0,0.513-1.713,0.928-3.819,0.928s-3.819-0.415-3.819-0.928l-0.351-4.576 l-0.902-1.464C13.424,25.029,18.555,24.995,20.952,24.032z M9.091,9.433l0.823,7.233c0.357-1.153,1.259-2.709,2.421-3.181 c0.381-0.156,0.769-0.156,1.132,0.052c0.315,0.173,0.581,0.536,0.611,0.68c0.073,0.375-0.121,0.524-0.272,0.524 c-0.182,0-0.321-0.265-0.412-0.421c-0.248-0.421-0.623-0.438-1.023-0.161c-0.418,0.288-0.781,0.772-1.035,1.193 c-0.309,0.507-0.569,1.066-0.726,1.625c-0.091,0.323-0.175,0.841-0.036,1.147c0.061,0.127,0.151,0.207,0.297,0.207 c0.303,0,0.744-0.38,0.956-0.582c0.272-0.259,0.623-0.663,0.756-0.922l0.315-0.893c0.157-0.392,0.599-0.323,0.599,0 c0,0.588-0.224,0.784-0.605,2c-0.351,1.124-0.46,1.487-0.46,1.487c-0.042,0.161-0.206,0.432-0.381,0.432 c-0.073,0-0.127-0.023-0.157-0.069c-0.061-0.081-0.054-0.305-0.048-0.363c0.012-0.184,0.381-1.279,0.442-1.452 c-0.121,0.127-0.248,0.254-0.387,0.38c-0.327,0.294-0.853,0.68-1.301,0.68c-0.206,0-0.339-0.052-0.466-0.138l0.46,4.588 c0.121,0.288,2.372,0.986,5.337,0.986c2.971,0,5.222-0.703,5.337-0.986l0.66-5.452c-0.345,0.3-0.744,0.669-1.186,0.853 c-0.327,0.133-1.053,0.219-1.053-0.329c0-0.3,0.551-0.853,0.871-1.239c0.085-0.098,0.284-0.34,0.284-0.467 c0-0.167-0.363-0.127-0.708,0.144c-0.194,0.156-0.375,0.363-0.526,0.559c-0.26,0.346-0.399,0.645-0.514,0.893 c-0.375,0.818-0.248,0.496-0.551,1.268c-0.303,0.767-0.254,0.68-0.315,0.807c-0.054,0.11-0.133,0.202-0.242,0.259 c-0.115,0.058-0.272,0.052-0.369-0.017c-0.054-0.035-0.079-0.11-0.079-0.213c0-0.052,0.006-0.104,0.018-0.156 c0.091-0.352,0.472-1.043,0.908-1.977c0.097-0.213,0.061-0.15,0.048-0.133c-0.375,0.346-0.66,0.513-0.871,0.605 c-0.351,0.15-0.787,0.15-0.877-0.236c-0.006-0.023-0.006-0.046-0.012-0.069c-0.714,0.53-1.471,0.674-1.21-0.467 c-0.278,0.473-0.762,0.859-1.356,0.859c-0.248,0-0.43-0.081-0.52-0.294c-0.139-0.317,0.079-0.859,0.278-1.372 c0.103-0.259,0.242-0.571,0.43-0.934c0.097-0.196,0.254-0.311,0.46-0.259c0.036,0.012,0.067,0.023,0.097,0.04 c0.157,0.104,0.097,0.259,0.018,0.415c-0.23,0.432-0.43,0.749-0.563,1.199c-0.054,0.19-0.121,0.519,0.091,0.519 c0.145,0,0.284-0.046,0.418-0.138c0.278-0.196,0.502-0.49,0.672-0.778c0.121-0.207,0.266-0.478,0.339-0.709 c0.03-0.098,0.067-0.19,0.109-0.277c0.067-0.144,0.157-0.294,0.315-0.294c0.079,0,0.145,0.029,0.194,0.086 c0.103,0.127,0.079,0.259,0.024,0.398c-0.121,0.323-0.284,0.611-0.418,0.962c-0.079,0.202-0.163,0.461-0.163,0.674 c0,0.196,0.224,0.15,0.412,0.069c0.145-0.063,0.29-0.161,0.412-0.259c0.073-0.282,0.054-0.219,1.598-3.931 c0.079-0.19,0.224-0.271,0.369-0.271c0.073,0,0.133,0.023,0.194,0.063c0.103,0.075,0.103,0.236,0.061,0.357 c-0.042,0.11-0.036,0.075-0.272,0.605c-0.315,0.697-0.52,1.199-0.799,1.839c-0.115,0.265-0.466,1.089-0.526,1.285 c-0.036,0.127-0.079,0.334,0.061,0.334c0.327,0,1.168-0.755,1.398-0.98c0.012-0.017,0.03-0.023,0.054-0.035 c0.036-0.11,0.073-0.213,0.103-0.317c0.085-0.219,0.163-0.473,0.321-0.651c0.048-0.058,0.103-0.092,0.163-0.092 c0.169,0,0.254,0.069,0.254,0.231c0,0.063-0.042,0.294-0.067,0.357c0.085-0.086,0.175-0.173,0.272-0.259 c0.908-0.801,1.555-0.392,1.555,0.012c0,0.426-0.539,1.02-0.835,1.349c-0.097,0.11-0.297,0.311-0.303,0.369 c0,0.075,0.054,0.104,0.133,0.104c0.121,0,0.387-0.202,0.484-0.271c0.303-0.225,0.714-0.571,1.005-0.813l0.896-7.884 C21.061,10.407,10.949,10.413,9.091,9.433L9.091,9.433z M22.991,8.944c0,1.21-13.991,1.21-13.991,0 c0-0.507,3.135-0.916,6.996-0.916c0.545,0,1.077,0.006,1.592,0.023l0.757-2.606l3.715-4.412c0.085-0.081,0.351-0.012,0.599,0.202 c0.248,0.213,0.399,0.455,0.321,0.536l-0.006,0.006L19.5,5.957l-0.6,2.145C21.315,8.252,22.991,8.569,22.991,8.944z M18.791,9.209 c0-0.046-0.054-0.086-0.151-0.121l-0.012,0.046c0,0.075-0.303,0.138-0.672,0.138c-0.369,0-0.672-0.063-0.672-0.138 c0-0.006,0-0.012,0.006-0.017l0.012-0.04c-0.109,0.035-0.182,0.081-0.182,0.133c0,0.121,0.375,0.213,0.829,0.213 C18.416,9.428,18.791,9.33,18.791,9.209L18.791,9.209z"/></svg>