<?xml version="1.0" encoding="utf-8"?>
<svg xmlns="http://www.w3.org/2000/svg" viewBox="0 0 50 50" fill="#000000"><path d="M 25 1.96875 C 24.496094 1.972656 23.988281 2.105469 23.53125 2.367188 C 2.035156 15.441406 2.039063 15.929688 2 16.601563 C 1.984375 16.882813 2.519531 17.46875 3.984375 18.796875 C 3.972656 18.863281 3.964844 18.933594 3.96875 19 C 3.96875 22.0625 3.976563 29.621094 3.980469 31.28125 C 3.375 31.640625 3 32.292969 3 33 C 3 33.230469 3.042969 33.460938 3.121094 33.679688 C 2.445313 34.226563 2 35.042969 2 35.96875 C 2 37.148438 2.613281 38.152344 3.144531 39.035156 C 3.675781 39.921875 4.207031 40.609375 4.207031 40.609375 C 4.394531 40.855469 4.6875 41 4.996094 41 C 5.304688 41 5.597656 40.859375 5.789063 40.617188 C 5.789063 40.617188 6.320313 39.9375 6.855469 39.058594 C 7.390625 38.175781 8 37.160156 8 35.96875 C 8 35.042969 7.554688 34.226563 6.878906 33.679688 C 6.957031 33.460938 7 33.230469 7 33 C 7 32.304688 6.636719 31.660156 6.046875 31.296875 C 6.042969 29.875 6.039063 24.355469 6.035156 20.609375 C 7.375 21.796875 8.421875 22.730469 11 25 L 11 18 C 11 18 16.292969 15 25 15 C 33.707031 15 39 18 39 18 L 39 25 C 45.875 18.917969 48.03125 17.136719 48 16.597656 C 47.960938 15.925781 47.964844 15.441406 26.449219 2.359375 C 26.003906 2.097656 25.5 1.96875 25 1.96875 Z M 39 25 C 38.972656 25.023438 38.820313 24.96875 38.570313 24.859375 C 38.238281 24.75 37.703125 24.589844 37 24.410156 L 37 27.113281 L 38.109375 26.996094 C 38.113281 26.996094 38.875 26.933594 39.402344 27.40625 C 39.796875 27.761719 40 28.371094 40 29.222656 C 40 30.484375 39.214844 31.871094 37.894531 32.003906 L 37.285156 32.066406 L 37.066406 32.640625 C 33.644531 41.503906 29.585938 46 25.003906 46 C 25.003906 46 25 46 25 46 C 25 46 24.996094 46 24.996094 46 C 20.414063 46 16.355469 41.503906 12.933594 32.640625 L 12.714844 32.066406 L 12.105469 32.003906 C 10.785156 31.871094 10 30.484375 10 29.222656 C 10 28.378906 10.195313 27.773438 10.585938 27.414063 C 11.109375 26.933594 11.890625 26.996094 11.890625 26.996094 L 13 27.113281 L 13 24.410156 C 12.261719 24.601563 11.710938 24.765625 11.382813 24.871094 C 11.160156 24.972656 11.027344 25.023438 11 25 L 11 25.070313 C 10.46875 25.175781 9.828125 25.410156 9.261719 25.917969 C 8.425781 26.667969 8 27.78125 8 29.222656 C 8 31.472656 9.367188 33.367188 11.269531 33.878906 C 14.984375 43.25 19.601563 48 24.996094 48 C 24.996094 48 25 48 25 48 C 25 48 25.003906 48 25.003906 48 C 30.398438 48 35.011719 43.25 38.730469 33.878906 C 40.632813 33.363281 42 31.472656 42 29.222656 C 42 27.78125 41.574219 26.667969 40.738281 25.917969 C 40.171875 25.410156 39.53125 25.175781 39 25.070313 Z M 13 24.410156 C 15.308594 23.824219 19.511719 23 25 23 C 30.492188 23 34.691406 23.820313 37 24.410156 L 37 19.265625 C 35.160156 18.480469 30.910156 17 25 17 C 19.042969 17 14.828125 18.472656 13 19.257813 Z M 5 35 C 5.574219 35 6 35.433594 6 35.96875 C 6 36.253906 5.609375 37.25 5.144531 38.015625 C 5.074219 38.132813 5.074219 38.117188 5.003906 38.222656 C 4.933594 38.109375 4.929688 38.125 4.855469 38.003906 C 4.386719 37.230469 4 36.214844 4 35.96875 C 4 35.433594 4.425781 35 5 35 Z" fill="#000000"/></svg>
